<?xml version="1.0" encoding="iso-8859-1"?>
<!-- Generator: Adobe Illustrator 19.0.0, SVG Export Plug-In . SVG Version: 6.00 Build 0)  -->
<svg version="1.1" id="Capa_1" xmlns="http://www.w3.org/2000/svg" xmlns:xlink="http://www.w3.org/1999/xlink" x="0px" y="0px"
	 viewBox="0 0 480.044 480.044" style="enable-background:new 0 0 480.044 480.044;" xml:space="preserve">
<g>
	<g>
		<g>
			<path d="M37.965,304.022h178.04c4.418,0,8-3.582,8-8v-264c0-4.418-3.582-8-8-8c-110.523,0.066-200.066,89.717-200,200.24
				c0.015,25.626,4.953,51.012,14.544,74.776C31.776,302.054,34.709,304.025,37.965,304.022z M152.271,51.444
				c17.883-6.614,36.686-10.411,55.734-11.254v247.832H43.445C8.167,192.642,56.89,86.722,152.271,51.444z"/>
			<path d="M264.005,304.022h192c4.418,0,8-3.582,8-8c-0.123-110.406-89.594-199.877-200-200c-4.418,0-8,3.582-8,8v192
				C256.005,300.44,259.587,304.022,264.005,304.022z M272.005,112.174c95.289,4.273,171.567,80.558,175.832,175.848H272.005
				V112.174z"/>
			<path d="M264.005,80.022h80c4.418,0,8-3.582,8-8c0-1.731-0.561-3.415-1.6-4.8l-20.4-27.2l20.4-27.2
				c2.651-3.535,1.935-8.549-1.6-11.2c-1.385-1.039-3.069-1.6-4.8-1.6h-80c-4.418,0-8,3.582-8,8v64
				C256.005,76.44,259.587,80.022,264.005,80.022z M272.005,16.022h56l-14.4,19.2c-2.133,2.844-2.133,6.756,0,9.6l14.4,19.2h-56
				V16.022z"/>
			<path d="M462.021,455.718c-3.126-3.314-8.346-3.466-11.659-0.341c-0.117,0.11-0.23,0.224-0.341,0.341
				c-4.401,4.96-10.681,7.848-17.312,7.96l46.824-124.848c1.551-4.137-0.546-8.748-4.683-10.299
				c-0.91-0.341-1.874-0.513-2.845-0.509h-224v-328h-16v328h-224c-4.418-0.003-8.002,3.577-8.005,7.995
				c-0.001,0.961,0.172,1.914,0.509,2.813l46.824,124.848c-6.631-0.112-12.911-3-17.312-7.96c-3.126-3.314-8.346-3.466-11.659-0.341
				c-0.117,0.11-0.23,0.224-0.341,0.341c-4.5,5.272-11.085,8.307-18.016,8.304v16c8.675-0.02,17.104-2.88,24-8.144
				c14.284,10.481,33.716,10.481,48,0c14.284,10.481,33.716,10.481,48,0c14.284,10.481,33.716,10.481,48,0
				c14.284,10.481,33.716,10.481,48,0c14.284,10.481,33.716,10.481,48,0c14.284,10.481,33.716,10.481,48,0
				c14.284,10.481,33.716,10.481,48,0c14.284,10.481,33.716,10.481,48,0c14.284,10.481,33.716,10.481,48,0
				c6.896,5.264,15.325,8.124,24,8.144v-16C473.085,464.016,466.514,460.982,462.021,455.718z M19.549,344.022h440.912l-12,32
				H31.549L19.549,344.022z M417.413,458.814c-1.232-0.916-2.368-1.953-3.392-3.096c-3.116-3.323-8.336-3.49-11.658-0.374
				c-0.128,0.12-0.253,0.245-0.374,0.374c-8.9,9.941-24.174,10.785-34.115,1.885c-0.662-0.593-1.292-1.222-1.885-1.885
				c-3.126-3.314-8.346-3.466-11.659-0.341c-0.117,0.11-0.23,0.224-0.341,0.341c-8.9,9.941-24.174,10.785-34.115,1.885
				c-0.662-0.593-1.292-1.222-1.885-1.885c-3.126-3.314-8.346-3.466-11.659-0.341c-0.117,0.11-0.23,0.224-0.341,0.341
				c-8.9,9.941-24.174,10.785-34.115,1.885c-0.662-0.593-1.292-1.222-1.885-1.885c-3.126-3.314-8.346-3.466-11.659-0.341
				c-0.117,0.11-0.23,0.224-0.341,0.341c-8.9,9.941-24.174,10.785-34.115,1.885c-0.662-0.593-1.292-1.222-1.885-1.885
				c-3.126-3.314-8.346-3.466-11.659-0.341c-0.117,0.11-0.23,0.224-0.341,0.341c-8.9,9.941-24.174,10.785-34.115,1.885
				c-0.662-0.593-1.292-1.222-1.885-1.885c-3.126-3.314-8.346-3.466-11.659-0.341c-0.117,0.11-0.23,0.224-0.341,0.341
				c-8.9,9.941-24.174,10.785-34.115,1.885c-0.662-0.593-1.292-1.222-1.885-1.885c-3.126-3.314-8.346-3.466-11.659-0.341
				c-0.117,0.11-0.23,0.224-0.341,0.341c-8.9,9.941-24.174,10.785-34.115,1.885c-0.662-0.593-1.292-1.222-1.885-1.885
				c-3.126-3.314-8.346-3.466-11.659-0.341c-0.117,0.11-0.23,0.224-0.341,0.341c-1.024,1.143-2.16,2.18-3.392,3.096l-25.048-66.792
				h404.912L417.413,458.814z"/>
		</g>
	</g>
</g>
<g>
</g>
<g>
</g>
<g>
</g>
<g>
</g>
<g>
</g>
<g>
</g>
<g>
</g>
<g>
</g>
<g>
</g>
<g>
</g>
<g>
</g>
<g>
</g>
<g>
</g>
<g>
</g>
<g>
</g>
</svg>
